<?xml version="1.0" encoding="UTF-8" standalone="no"?><svg xmlns="http://www.w3.org/2000/svg" xmlns:xlink="http://www.w3.org/1999/xlink" style="isolation:isolate" viewBox="0 0 1092.83 297.91" width="200px" height="60px"><defs><clipPath id="_clipPath_HNMfjavm8bHsV55kMd24tRytqfoTl488"><rect width="1092.83" height="297.91"/></clipPath></defs><g clip-path="url(#_clipPath_HNMfjavm8bHsV55kMd24tRytqfoTl488)"><path d=" M 403.08 98.74 C 437.71 98.74 460.72 123.8 460.72 157.74 C 460.72 191.68 437.72 216.52 403.08 216.52 C 368.44 216.52 345.45 191.69 345.45 157.74 C 345.45 123.79 368.45 98.74 403.08 98.74 L 403.08 98.74 Z  M 403.08 194.88 C 423.08 194.88 436.35 179.16 436.35 157.52 C 436.35 136.1 423.13 120.61 403.08 120.61 C 382.81 120.61 369.83 136.1 369.83 157.52 C 369.83 179.16 382.81 194.88 403.08 194.88 Z  M 537.93 216.74 C 521.07 216.74 506.04 209.68 498.75 198.07 L 498.75 264.82 L 475.51 264.82 L 475.51 101.93 L 496.92 101.93 L 498.06 117.65 C 504.67 106.48 518.56 98.74 537.25 98.74 C 569.6 98.74 591.25 120.6 591.7 156.6 C 592.38 194.2 569.37 216.74 537.93 216.74 L 537.93 216.74 Z  M 567.55 157.52 C 567.55 135.19 554.34 120.61 533.84 120.61 C 513.34 120.61 499.89 135.19 499.89 157.52 C 499.89 179.85 513.33 194.66 533.84 194.66 C 554.35 194.66 567.55 179.84 567.55 157.52 L 567.55 157.52 Z  M 714.24 167.31 L 627 167.31 C 628.83 187.13 643.18 195.79 659.35 195.79 C 674.16 195.79 684.18 188.49 689.65 177.34 L 709.93 185.54 C 701.27 205.35 682.13 216.74 659.13 216.74 C 626.3 216.74 604 193.51 604 158 C 604 123.14 625.86 98.76 659.59 98.76 C 692.59 98.76 714.26 122 714.26 157.76 L 714.24 167.31 Z  M 627.24 150 L 689.66 150 C 688.52 129.26 676.45 119 659.14 119 C 641.34 119 629.49 130 627.22 150 L 627.24 150 Z  M 836.12 145 L 836.12 213.8 L 812 213.8 L 812 149.8 C 812 125.2 796.74 120.64 786.25 120.64 C 771.9 120.64 757.32 129.75 757.32 151.17 L 757.32 213.82 L 733.14 213.82 L 733.14 101.93 L 755.7 101.93 L 756.6 114.93 C 763 105.12 776 98.74 791.23 98.74 C 818.35 98.74 836.12 114.24 836.12 145 Z  M 890.09 86 L 890.09 102 L 916.52 102 L 916.52 122 L 890.09 122 L 890.09 213.81 L 865.71 213.81 L 865.71 122 L 849.54 122 L 849.54 102 L 865.72 102 L 865.72 86 C 865.72 57.07 881.9 45.23 904.22 45.23 C 908.517 45.201 912.803 45.651 917 46.57 L 917 68 C 895.55 64.11 890.09 72.77 890.09 86 Z  M 935.64 62.74 C 935.607 53.878 942.758 46.665 951.62 46.621 C 960.482 46.577 967.704 53.719 967.76 62.581 C 967.815 71.442 960.682 78.674 951.82 78.74 C 947.541 78.802 943.417 77.142 940.375 74.133 C 937.332 71.124 935.626 67.019 935.64 62.74 L 935.64 62.74 Z  M 963.89 101.93 L 963.89 213.79 L 939.73 213.79 L 939.73 101.93 L 963.89 101.93 Z  M 1092.83 145 L 1092.83 213.8 L 1068.68 213.8 L 1068.68 149.8 C 1068.68 125.2 1053.42 120.64 1042.93 120.64 C 1028.58 120.64 1014 129.75 1014 151.17 L 1014 213.82 L 989.85 213.82 L 989.85 101.93 L 1012.41 101.93 L 1013.31 114.93 C 1019.69 105.14 1032.68 98.75 1047.94 98.75 C 1075.06 98.74 1092.83 114.24 1092.83 145 Z " fill="rgb(255,255,255)"/><path d=" M 283.38 114 C 281.591 112.21 279.669 110.559 277.63 109.06 L 276.88 108.54 C 276.45 108.24 276.03 107.93 275.59 107.64 C 275.15 107.35 274.64 107.04 274.17 106.75 L 273.51 106.34 C 272.92 105.99 272.32 105.66 271.72 105.34 L 271.37 105.15 C 264.275 101.427 256.383 99.478 248.37 99.47 C 235.184 99.459 222.543 94.211 213.228 84.878 C 203.913 75.546 198.687 62.896 198.7 49.71 C 198.736 29.64 186.679 11.524 168.15 3.811 C 149.621 -3.903 128.27 0.306 114.054 14.473 C 99.837 28.641 95.556 49.977 103.206 68.533 C 110.855 87.088 128.93 99.208 149 99.24 C 162.186 99.251 174.827 104.499 184.142 113.832 C 193.457 123.164 198.683 135.814 198.67 149 C 198.659 162.186 193.411 174.827 184.078 184.142 C 174.746 193.457 162.096 198.683 148.91 198.67 C 135.734 198.681 123.095 193.451 113.78 184.133 C 104.464 174.816 99.237 162.176 99.25 149 C 99.25 121.596 77.034 99.38 49.63 99.38 C 22.226 99.38 0.01 121.596 0.01 149 C 0.01 176.404 22.226 198.62 49.63 198.62 C 62.79 198.62 75.411 203.848 84.717 213.153 C 94.022 222.459 99.25 235.08 99.25 248.24 C 99.25 275.697 121.508 297.955 148.965 297.955 C 176.422 297.955 198.68 275.697 198.68 248.24 C 198.68 235.08 203.908 222.459 213.213 213.153 C 222.519 203.848 235.14 198.62 248.3 198.62 C 257.159 198.626 265.857 196.257 273.49 191.76 C 274.15 191.37 274.8 190.96 275.49 190.54 L 275.63 190.45 C 276.23 190.05 276.83 189.63 277.41 189.21 L 277.67 189.03 C 278.19 188.65 278.67 188.24 279.22 187.83 L 279.66 187.49 C 280.14 187.1 280.6 186.69 281.07 186.28 L 281.58 185.84 Q 282.48 185.03 283.35 184.16 L 283.44 184.08 C 285.583 181.928 287.524 179.585 289.24 177.08 Q 289.8 176.27 290.32 175.44 C 302.613 155.846 299.734 130.358 283.38 114 L 283.38 114 Z " fill="rgb(80,76,255)"/></g></svg>